# Blender v3.1.2 OBJ File: 'ring.blend'
# www.blender.org
mtllib ring.mtl
o Cylinder
v -0.000000 -0.035354 -0.913710
v -0.000000 0.035354 -0.913866
v 0.178256 -0.035354 -0.896154
v 0.178286 0.035354 -0.896306
v 0.349662 -0.035354 -0.844158
v 0.349721 0.035354 -0.844302
v 0.507630 -0.035354 -0.759722
v 0.507717 0.035354 -0.759852
v 0.646091 -0.035354 -0.646091
v 0.646201 0.035354 -0.646201
v 0.759722 -0.035354 -0.507630
v 0.759852 0.035354 -0.507717
v 0.844158 -0.035354 -0.349662
v 0.844302 0.035354 -0.349721
v 0.896154 -0.035354 -0.178256
v 0.896306 0.035354 -0.178286
v 0.913710 -0.035354 0.000000
v 0.913866 0.035354 0.000000
v 0.896154 -0.035354 0.178256
v 0.896306 0.035354 0.178286
v 0.844158 -0.035354 0.349662
v 0.844302 0.035354 0.349721
v 0.759722 -0.035354 0.507630
v 0.759852 0.035354 0.507717
v 0.646091 -0.035354 0.646091
v 0.646201 0.035354 0.646201
v 0.507630 -0.035354 0.759722
v 0.507717 0.035354 0.759852
v 0.349662 -0.035354 0.844158
v 0.349721 0.035354 0.844302
v 0.178256 -0.035354 0.896154
v 0.178286 0.035354 0.896306
v -0.000000 -0.035354 0.913710
v -0.000000 0.035354 0.913866
v -0.178256 -0.035354 0.896154
v -0.178286 0.035354 0.896306
v -0.349662 -0.035354 0.844158
v -0.349721 0.035354 0.844302
v -0.507630 -0.035354 0.759722
v -0.507717 0.035354 0.759852
v -0.646091 -0.035354 0.646091
v -0.646201 0.035354 0.646201
v -0.759722 -0.035354 0.507630
v -0.759852 0.035354 0.507717
v -0.844158 -0.035354 0.349662
v -0.844302 0.035354 0.349721
v -0.896154 -0.035354 0.178256
v -0.896306 0.035354 0.178286
v -0.913710 -0.035354 -0.000000
v -0.913866 0.035354 -0.000000
v -0.896154 -0.035354 -0.178256
v -0.896306 0.035354 -0.178286
v -0.844158 -0.035354 -0.349662
v -0.844302 0.035354 -0.349721
v -0.759722 -0.035354 -0.507630
v -0.759852 0.035354 -0.507716
v -0.646091 -0.035354 -0.646091
v -0.646201 0.035354 -0.646201
v -0.507630 -0.035354 -0.759722
v -0.507717 0.035354 -0.759852
v -0.349662 -0.035354 -0.844158
v -0.349721 0.035354 -0.844302
v -0.178256 -0.035354 -0.896154
v -0.178286 0.035354 -0.896306
v 0.195090 0.035354 -0.980785
v 0.000000 0.035354 -1.000000
v 0.382683 0.035354 -0.923880
v 0.555570 0.035354 -0.831470
v 0.707107 0.035354 -0.707107
v 0.831470 0.035354 -0.555570
v 0.923880 0.035354 -0.382683
v 0.980785 0.035354 -0.195090
v 1.000000 0.035354 0.000000
v 0.980785 0.035354 0.195090
v 0.923880 0.035354 0.382683
v 0.831470 0.035354 0.555570
v 0.707107 0.035354 0.707107
v 0.555570 0.035354 0.831470
v 0.382683 0.035354 0.923880
v 0.195090 0.035354 0.980785
v -0.000000 0.035354 1.000000
v -0.195090 0.035354 0.980785
v -0.382683 0.035354 0.923880
v -0.555570 0.035354 0.831470
v -0.707107 0.035354 0.707107
v -0.831469 0.035354 0.555570
v -0.923880 0.035354 0.382684
v -0.980785 0.035354 0.195090
v -1.000000 0.035354 -0.000000
v -0.980785 0.035354 -0.195090
v -0.923879 0.035354 -0.382684
v -0.831470 0.035354 -0.555570
v -0.707107 0.035354 -0.707107
v -0.555570 0.035354 -0.831470
v -0.382683 0.035354 -0.923880
v -0.195090 0.035354 -0.980785
v 0.000000 -0.035354 -1.000000
v 0.195090 -0.035354 -0.980785
v 0.382683 -0.035354 -0.923880
v 0.555570 -0.035354 -0.831470
v 0.707107 -0.035354 -0.707107
v 0.831470 -0.035354 -0.555570
v 0.923880 -0.035354 -0.382683
v 0.980785 -0.035354 -0.195090
v 1.000000 -0.035354 0.000000
v 0.980785 -0.035354 0.195090
v 0.923880 -0.035354 0.382683
v 0.831470 -0.035354 0.555570
v 0.707107 -0.035354 0.707107
v 0.555570 -0.035354 0.831470
v 0.382683 -0.035354 0.923880
v 0.195090 -0.035354 0.980785
v -0.000000 -0.035354 1.000000
v -0.195090 -0.035354 0.980785
v -0.382683 -0.035354 0.923880
v -0.555570 -0.035354 0.831470
v -0.707107 -0.035354 0.707107
v -0.831469 -0.035354 0.555570
v -0.923880 -0.035354 0.382684
v -0.980785 -0.035354 0.195090
v -1.000000 -0.035354 -0.000000
v -0.980785 -0.035354 -0.195090
v -0.923879 -0.035354 -0.382684
v -0.831470 -0.035354 -0.555570
v -0.707107 -0.035354 -0.707107
v -0.555570 -0.035354 -0.831470
v -0.382683 -0.035354 -0.923880
v -0.195090 -0.035354 -0.980785
vt 1.000000 0.500000
vt 1.000000 1.000000
vt 0.968750 1.000000
vt 0.968750 0.500000
vt 0.937500 1.000000
vt 0.937500 0.500000
vt 0.906250 1.000000
vt 0.906250 0.500000
vt 0.875000 1.000000
vt 0.875000 0.500000
vt 0.843750 1.000000
vt 0.843750 0.500000
vt 0.812500 1.000000
vt 0.812500 0.500000
vt 0.781250 1.000000
vt 0.781250 0.500000
vt 0.750000 1.000000
vt 0.750000 0.500000
vt 0.718750 1.000000
vt 0.718750 0.500000
vt 0.687500 1.000000
vt 0.687500 0.500000
vt 0.656250 1.000000
vt 0.656250 0.500000
vt 0.625000 1.000000
vt 0.625000 0.500000
vt 0.593750 1.000000
vt 0.593750 0.500000
vt 0.562500 1.000000
vt 0.562500 0.500000
vt 0.531250 1.000000
vt 0.531250 0.500000
vt 0.500000 1.000000
vt 0.500000 0.500000
vt 0.468750 1.000000
vt 0.468750 0.500000
vt 0.437500 1.000000
vt 0.437500 0.500000
vt 0.406250 1.000000
vt 0.406250 0.500000
vt 0.375000 1.000000
vt 0.375000 0.500000
vt 0.343750 1.000000
vt 0.343750 0.500000
vt 0.312500 1.000000
vt 0.312500 0.500000
vt 0.281250 1.000000
vt 0.281250 0.500000
vt 0.250000 1.000000
vt 0.250000 0.500000
vt 0.218750 1.000000
vt 0.218750 0.500000
vt 0.187500 1.000000
vt 0.187500 0.500000
vt 0.156250 1.000000
vt 0.156250 0.500000
vt 0.125000 1.000000
vt 0.125000 0.500000
vt 0.093750 1.000000
vt 0.093750 0.500000
vt 0.062500 1.000000
vt 0.062500 0.500000
vt 0.031250 1.000000
vt 0.031250 0.500000
vt 0.000000 1.000000
vt 0.000000 0.500000
vt 0.781444 0.408079
vt 0.811679 0.398907
vt 0.309526 0.393709
vt 0.280346 0.402560
vt 0.250000 0.405549
vt 0.296822 0.485388
vt 0.250000 0.490000
vt 0.341844 0.471731
vt 0.336419 0.379335
vt 0.383337 0.449553
vt 0.359990 0.359990
vt 0.419706 0.419706
vt 0.379335 0.336419
vt 0.449553 0.383337
vt 0.393709 0.309526
vt 0.471731 0.341844
vt 0.402560 0.280346
vt 0.485388 0.296822
vt 0.405549 0.250000
vt 0.490000 0.250000
vt 0.402560 0.219654
vt 0.485388 0.203178
vt 0.393709 0.190474
vt 0.471731 0.158156
vt 0.379334 0.163581
vt 0.449553 0.116663
vt 0.359990 0.140010
vt 0.419706 0.080294
vt 0.336419 0.120665
vt 0.383337 0.050447
vt 0.309526 0.106291
vt 0.341844 0.028269
vt 0.280346 0.097440
vt 0.296822 0.014612
vt 0.250000 0.094451
vt 0.250000 0.010000
vt 0.219654 0.097440
vt 0.203178 0.014612
vt 0.190474 0.106291
vt 0.158156 0.028269
vt 0.163581 0.120665
vt 0.116663 0.050447
vt 0.140010 0.140010
vt 0.080294 0.080294
vt 0.120665 0.163581
vt 0.050447 0.116663
vt 0.106291 0.190474
vt 0.028269 0.158156
vt 0.097440 0.219654
vt 0.014612 0.203178
vt 0.094451 0.250000
vt 0.010000 0.250000
vt 0.097440 0.280346
vt 0.014612 0.296822
vt 0.106291 0.309526
vt 0.028269 0.341844
vt 0.120665 0.336419
vt 0.050447 0.383337
vt 0.140010 0.359990
vt 0.080294 0.419706
vt 0.163581 0.379334
vt 0.116663 0.449553
vt 0.190474 0.393709
vt 0.158156 0.471731
vt 0.219654 0.402560
vt 0.203178 0.485388
vt 0.750000 0.411176
vt 0.750000 0.490000
vt 0.796822 0.485388
vt 0.841844 0.471731
vt 0.839545 0.384013
vt 0.883337 0.449553
vt 0.863969 0.363969
vt 0.919706 0.419706
vt 0.884013 0.339545
vt 0.949553 0.383337
vt 0.898907 0.311679
vt 0.971731 0.341844
vt 0.908079 0.281444
vt 0.985388 0.296822
vt 0.911176 0.250000
vt 0.990000 0.250000
vt 0.908079 0.218556
vt 0.985388 0.203178
vt 0.898907 0.188321
vt 0.971731 0.158156
vt 0.884013 0.160455
vt 0.949553 0.116663
vt 0.863969 0.136031
vt 0.919706 0.080294
vt 0.839545 0.115987
vt 0.883337 0.050447
vt 0.811679 0.101093
vt 0.841844 0.028269
vt 0.781444 0.091921
vt 0.796822 0.014612
vt 0.750000 0.088824
vt 0.750000 0.010000
vt 0.718556 0.091921
vt 0.703178 0.014612
vt 0.688321 0.101093
vt 0.658156 0.028269
vt 0.660455 0.115987
vt 0.616663 0.050447
vt 0.636031 0.136031
vt 0.580294 0.080294
vt 0.615987 0.160455
vt 0.550447 0.116663
vt 0.601093 0.188321
vt 0.528269 0.158156
vt 0.591921 0.218556
vt 0.514612 0.203178
vt 0.588824 0.250000
vt 0.510000 0.250000
vt 0.591921 0.281444
vt 0.514612 0.296822
vt 0.601093 0.311679
vt 0.528269 0.341844
vt 0.615987 0.339545
vt 0.550447 0.383337
vt 0.636031 0.363969
vt 0.580294 0.419706
vt 0.660455 0.384013
vt 0.616663 0.449553
vt 0.688321 0.398907
vt 0.658156 0.471731
vt 0.718556 0.408079
vt 0.703178 0.485388
vn 0.0980 0.0000 -0.9952
vn 0.2903 0.0000 -0.9569
vn 0.4714 0.0000 -0.8819
vn 0.6344 0.0000 -0.7730
vn 0.7730 0.0000 -0.6344
vn 0.8819 0.0000 -0.4714
vn 0.9569 0.0000 -0.2903
vn 0.9952 0.0000 -0.0980
vn 0.9952 0.0000 0.0980
vn 0.9569 0.0000 0.2903
vn 0.8819 0.0000 0.4714
vn 0.7730 0.0000 0.6344
vn 0.6344 0.0000 0.7730
vn 0.4714 0.0000 0.8819
vn 0.2903 0.0000 0.9569
vn 0.0980 0.0000 0.9952
vn -0.0980 0.0000 0.9952
vn -0.2903 0.0000 0.9569
vn -0.4714 0.0000 0.8819
vn -0.6344 0.0000 0.7730
vn -0.7730 0.0000 0.6344
vn -0.8819 0.0000 0.4714
vn -0.9569 0.0000 0.2903
vn -0.9952 0.0000 0.0980
vn -0.9952 0.0000 -0.0980
vn -0.9569 0.0000 -0.2903
vn -0.8819 0.0000 -0.4714
vn -0.7730 0.0000 -0.6344
vn -0.6344 0.0000 -0.7730
vn -0.4714 0.0000 -0.8819
vn -0.2903 0.0000 -0.9569
vn -0.0980 0.0000 -0.9952
vn -0.2903 0.0022 0.9569
vn 0.0000 1.0000 0.0000
vn 0.0000 -1.0000 0.0000
vn -0.4714 0.0022 0.8819
vn -0.6344 0.0022 0.7730
vn -0.7730 0.0022 0.6344
vn -0.8819 0.0022 0.4714
vn -0.9569 0.0022 0.2903
vn -0.9952 0.0022 0.0980
vn -0.9952 0.0022 -0.0980
vn -0.9569 0.0022 -0.2903
vn -0.8819 0.0022 -0.4714
vn -0.7730 0.0022 -0.6344
vn -0.6344 0.0022 -0.7730
vn -0.4714 0.0022 -0.8819
vn -0.2903 0.0022 -0.9569
vn -0.0980 0.0022 -0.9952
vn 0.0980 0.0022 -0.9952
vn 0.2903 0.0022 -0.9569
vn 0.4714 0.0022 -0.8819
vn 0.6344 0.0022 -0.7730
vn 0.7730 0.0022 -0.6344
vn 0.8819 0.0022 -0.4714
vn 0.9569 0.0022 -0.2903
vn 0.9952 0.0022 -0.0980
vn 0.9952 0.0022 0.0980
vn 0.9569 0.0022 0.2903
vn 0.8819 0.0022 0.4714
vn 0.7730 0.0022 0.6344
vn 0.6344 0.0022 0.7730
vn 0.4714 0.0022 0.8819
vn 0.2903 0.0022 0.9569
vn 0.0980 0.0022 0.9952
vn -0.0980 0.0022 0.9952
usemtl None
s off
f 97/1/1 66/2/1 65/3/1 98/4/1
f 98/4/2 65/3/2 67/5/2 99/6/2
f 99/6/3 67/5/3 68/7/3 100/8/3
f 100/8/4 68/7/4 69/9/4 101/10/4
f 101/10/5 69/9/5 70/11/5 102/12/5
f 102/12/6 70/11/6 71/13/6 103/14/6
f 103/14/7 71/13/7 72/15/7 104/16/7
f 104/16/8 72/15/8 73/17/8 105/18/8
f 105/18/9 73/17/9 74/19/9 106/20/9
f 106/20/10 74/19/10 75/21/10 107/22/10
f 107/22/11 75/21/11 76/23/11 108/24/11
f 108/24/12 76/23/12 77/25/12 109/26/12
f 109/26/13 77/25/13 78/27/13 110/28/13
f 110/28/14 78/27/14 79/29/14 111/30/14
f 111/30/15 79/29/15 80/31/15 112/32/15
f 112/32/16 80/31/16 81/33/16 113/34/16
f 113/34/17 81/33/17 82/35/17 114/36/17
f 114/36/18 82/35/18 83/37/18 115/38/18
f 115/38/19 83/37/19 84/39/19 116/40/19
f 116/40/20 84/39/20 85/41/20 117/42/20
f 117/42/21 85/41/21 86/43/21 118/44/21
f 118/44/22 86/43/22 87/45/22 119/46/22
f 119/46/23 87/45/23 88/47/23 120/48/23
f 120/48/24 88/47/24 89/49/24 121/50/24
f 121/50/25 89/49/25 90/51/25 122/52/25
f 122/52/26 90/51/26 91/53/26 123/54/26
f 123/54/27 91/53/27 92/55/27 124/56/27
f 124/56/28 92/55/28 93/57/28 125/58/28
f 125/58/29 93/57/29 94/59/29 126/60/29
f 126/60/30 94/59/30 95/61/30 127/62/30
f 127/62/31 95/61/31 96/63/31 128/64/31
f 128/64/32 96/63/32 66/65/32 97/66/32
f 3/67/33 5/68/33 6/69/33 4/70/33
f 2/71/34 4/70/34 65/72/34 66/73/34
f 4/70/34 6/69/34 67/74/34 65/72/34
f 6/69/34 8/75/34 68/76/34 67/74/34
f 8/75/34 10/77/34 69/78/34 68/76/34
f 10/77/34 12/79/34 70/80/34 69/78/34
f 12/79/34 14/81/34 71/82/34 70/80/34
f 14/81/34 16/83/34 72/84/34 71/82/34
f 16/83/34 18/85/34 73/86/34 72/84/34
f 18/85/34 20/87/34 74/88/34 73/86/34
f 20/87/34 22/89/34 75/90/34 74/88/34
f 22/89/34 24/91/34 76/92/34 75/90/34
f 24/91/34 26/93/34 77/94/34 76/92/34
f 26/93/34 28/95/34 78/96/34 77/94/34
f 28/95/34 30/97/34 79/98/34 78/96/34
f 30/97/34 32/99/34 80/100/34 79/98/34
f 32/99/34 34/101/34 81/102/34 80/100/34
f 34/101/34 36/103/34 82/104/34 81/102/34
f 36/103/34 38/105/34 83/106/34 82/104/34
f 38/105/34 40/107/34 84/108/34 83/106/34
f 40/107/34 42/109/34 85/110/34 84/108/34
f 42/109/34 44/111/34 86/112/34 85/110/34
f 44/111/34 46/113/34 87/114/34 86/112/34
f 46/113/34 48/115/34 88/116/34 87/114/34
f 48/115/34 50/117/34 89/118/34 88/116/34
f 50/117/34 52/119/34 90/120/34 89/118/34
f 52/119/34 54/121/34 91/122/34 90/120/34
f 54/121/34 56/123/34 92/124/34 91/122/34
f 56/123/34 58/125/34 93/126/34 92/124/34
f 58/125/34 60/127/34 94/128/34 93/126/34
f 60/127/34 62/129/34 95/130/34 94/128/34
f 62/129/34 64/131/34 96/132/34 95/130/34
f 64/131/34 2/71/34 66/73/34 96/132/34
f 3/67/35 1/133/35 97/134/35 98/135/35
f 5/68/35 3/67/35 98/135/35 99/136/35
f 7/137/35 5/68/35 99/136/35 100/138/35
f 9/139/35 7/137/35 100/138/35 101/140/35
f 11/141/35 9/139/35 101/140/35 102/142/35
f 13/143/35 11/141/35 102/142/35 103/144/35
f 15/145/35 13/143/35 103/144/35 104/146/35
f 17/147/35 15/145/35 104/146/35 105/148/35
f 19/149/35 17/147/35 105/148/35 106/150/35
f 21/151/35 19/149/35 106/150/35 107/152/35
f 23/153/35 21/151/35 107/152/35 108/154/35
f 25/155/35 23/153/35 108/154/35 109/156/35
f 27/157/35 25/155/35 109/156/35 110/158/35
f 29/159/35 27/157/35 110/158/35 111/160/35
f 31/161/35 29/159/35 111/160/35 112/162/35
f 33/163/35 31/161/35 112/162/35 113/164/35
f 35/165/35 33/163/35 113/164/35 114/166/35
f 37/167/35 35/165/35 114/166/35 115/168/35
f 39/169/35 37/167/35 115/168/35 116/170/35
f 41/171/35 39/169/35 116/170/35 117/172/35
f 43/173/35 41/171/35 117/172/35 118/174/35
f 45/175/35 43/173/35 118/174/35 119/176/35
f 47/177/35 45/175/35 119/176/35 120/178/35
f 49/179/35 47/177/35 120/178/35 121/180/35
f 51/181/35 49/179/35 121/180/35 122/182/35
f 53/183/35 51/181/35 122/182/35 123/184/35
f 55/185/35 53/183/35 123/184/35 124/186/35
f 57/187/35 55/185/35 124/186/35 125/188/35
f 59/189/35 57/187/35 125/188/35 126/190/35
f 61/191/35 59/189/35 126/190/35 127/192/35
f 63/193/35 61/191/35 127/192/35 128/194/35
f 1/133/35 63/193/35 128/194/35 97/134/35
f 5/68/36 7/137/36 8/75/36 6/69/36
f 7/137/37 9/139/37 10/77/37 8/75/37
f 9/139/38 11/141/38 12/79/38 10/77/38
f 11/141/39 13/143/39 14/81/39 12/79/39
f 13/143/40 15/145/40 16/83/40 14/81/40
f 15/145/41 17/147/41 18/85/41 16/83/41
f 17/147/42 19/149/42 20/87/42 18/85/42
f 19/149/43 21/151/43 22/89/43 20/87/43
f 21/151/44 23/153/44 24/91/44 22/89/44
f 23/153/45 25/155/45 26/93/45 24/91/45
f 25/155/46 27/157/46 28/95/46 26/93/46
f 27/157/47 29/159/47 30/97/47 28/95/47
f 29/159/48 31/161/48 32/99/48 30/97/48
f 31/161/49 33/163/49 34/101/49 32/99/49
f 33/163/50 35/165/50 36/103/50 34/101/50
f 35/165/51 37/167/51 38/105/51 36/103/51
f 37/167/52 39/169/52 40/107/52 38/105/52
f 39/169/53 41/171/53 42/109/53 40/107/53
f 41/171/54 43/173/54 44/111/54 42/109/54
f 43/173/55 45/175/55 46/113/55 44/111/55
f 45/175/56 47/177/56 48/115/56 46/113/56
f 47/177/57 49/179/57 50/117/57 48/115/57
f 49/179/58 51/181/58 52/119/58 50/117/58
f 51/181/59 53/183/59 54/121/59 52/119/59
f 53/183/60 55/185/60 56/123/60 54/121/60
f 55/185/61 57/187/61 58/125/61 56/123/61
f 57/187/62 59/189/62 60/127/62 58/125/62
f 59/189/63 61/191/63 62/129/63 60/127/63
f 61/191/64 63/193/64 64/131/64 62/129/64
f 63/193/65 1/133/65 2/71/65 64/131/65
f 1/133/66 3/67/66 4/70/66 2/71/66
